<?xml version="1.0" encoding="UTF-8"?>
<svg width="1200" height="900" viewBox="0 0 1200 900" xmlns="http://www.w3.org/2000/svg">
  <defs>
    <linearGradient id="grad1" x1="0%" y1="0%" x2="100%" y2="100%">
      <stop offset="0%" style="stop-color:#4f46e5;stop-opacity:1" />
      <stop offset="100%" style="stop-color:#7f66e9;stop-opacity:1" />
    </linearGradient>
    <linearGradient id="grad2" x1="0%" y1="0%" x2="100%" y2="100%">
      <stop offset="0%" style="stop-color:#6366f1;stop-opacity:0.8" />
      <stop offset="100%" style="stop-color:#3b82f6;stop-opacity:0.8" />
    </linearGradient>
    <linearGradient id="grad3" x1="0%" y1="0%" x2="100%" y2="100%">
      <stop offset="0%" style="stop-color:#a5b4fc;stop-opacity:0.4" />
      <stop offset="100%" style="stop-color:#818cf8;stop-opacity:0.4" />
    </linearGradient>
  </defs>
  
  <!-- Background -->
  <rect width="100%" height="100%" fill="url(#grad1)"/>
  
  <!-- Abstract shapes -->
  <circle cx="200" cy="150" r="300" fill="url(#grad2)" opacity="0.5"/>
  <circle cx="1000" cy="800" r="400" fill="url(#grad3)" opacity="0.5"/>
  
  <!-- Graph/Chart like elements -->
  <g opacity="0.2" fill="none" stroke="white" stroke-width="4">
    <!-- Bar chart -->
    <rect x="100" y="600" width="40" height="100" />
    <rect x="150" y="550" width="40" height="150" />
    <rect x="200" y="500" width="40" height="200" />
    <rect x="250" y="450" width="40" height="250" />
    <rect x="300" y="500" width="40" height="200" />
    
    <!-- Line chart -->
    <path d="M500,700 L550,650 L600,670 L650,600 L700,550 L750,580 L800,520 L850,540 L900,480" />
    
    <!-- Circular progress indicators -->
    <circle cx="200" cy="300" r="50" stroke-dasharray="251.2 314" transform="rotate(-90 200 300)" />
    <circle cx="350" cy="300" r="50" stroke-dasharray="188.4 314" transform="rotate(-90 350 300)" />
    <circle cx="500" cy="300" r="50" stroke-dasharray="282.6 314" transform="rotate(-90 500 300)" />
    
    <!-- Target/Goal icon -->
    <circle cx="850" cy="300" r="80" />
    <circle cx="850" cy="300" r="60" />
    <circle cx="850" cy="300" r="40" />
    <circle cx="850" cy="300" r="20" />
    <line x1="850" y1="200" x2="850" y2="400" />
    <line x1="750" y1="300" x2="950" y2="300" />
  </g>
  
  <!-- OKR text -->
  <text x="600" y="180" fill="white" font-family="Arial" font-size="90" font-weight="bold" opacity="0.3" text-anchor="middle">OBJECTIVES</text>
  <text x="600" y="260" fill="white" font-family="Arial" font-size="90" font-weight="bold" opacity="0.3" text-anchor="middle">KEY RESULTS</text>
  
  <!-- Abstract connection lines -->
  <g opacity="0.2" stroke="white" stroke-width="2">
    <line x1="100" y1="200" x2="300" y2="400" />
    <line x1="300" y1="400" x2="500" y2="350" />
    <line x1="500" y1="350" x2="700" y2="450" />
    <line x1="700" y1="450" x2="900" y2="400" />
    
    <line x1="150" y1="250" x2="350" y2="450" />
    <line x1="350" y1="450" x2="550" y2="400" />
    <line x1="550" y1="400" x2="750" y2="500" />
    <line x1="750" y1="500" x2="950" y2="450" />
  </g>
</svg>